<svg width="33" height="33" viewBox="0 0 33 33" fill="none" xmlns="http://www.w3.org/2000/svg">
<path fill-rule="evenodd" clip-rule="evenodd" d="M24.9881 0.0172839C26.6234 1.17678 27.9719 2.67881 29.1262 4.36111C30.2777 6.03931 31.202 7.99571 31.7578 10.236C32.0383 11.3669 32.2969 12.6476 32.3403 13.9387C32.482 18.1506 31.3794 21.5615 29.789 24.1369C27.6492 27.6023 24.552 30.2688 20.3674 31.6049C18.2865 32.269 15.4873 32.5808 12.9344 32.1633C10.5563 31.7749 8.61176 30.9161 6.88771 29.805C6.07442 29.2809 5.23368 28.6397 4.53737 27.9223C3.84107 27.2057 3.12327 26.4961 2.58851 25.6467C2.45442 25.4337 2.3462 25.1903 2.20693 24.9642C1.29776 23.492 0.495213 21.62 0.178094 19.5444C-0.234517 16.8481 0.0985166 14.0956 0.881166 12.0974C1.27826 11.0829 1.77164 10.1389 2.32749 9.28386C2.61119 8.84833 2.88295 8.43001 3.21161 8.04324C4.81351 6.15731 6.86622 4.67454 9.57983 3.88543C11.2171 3.40892 13.2293 3.16432 15.1443 3.53389C16.9217 3.87641 18.3032 4.48935 19.6242 5.35426C21.306 6.45558 22.7424 7.8982 23.6619 9.78126C23.8951 10.2594 24.1402 10.7461 24.3049 11.271C24.4701 11.7971 24.5659 12.351 24.7868 12.9049C24.9427 10.9027 24.887 8.74672 24.887 6.53343C24.887 4.67659 24.887 2.73576 24.887 0.824017C24.887 0.540083 24.8564 0.185678 24.9272 0.0377698C24.93 0.0213811 24.9941 -0.024917 24.9881 0.0172839ZM17.3343 14.0009C17.1334 13.1217 16.5278 12.3223 15.8478 11.829C15.1081 11.2919 14.2332 10.9313 13.1159 10.9391C11.3238 10.9522 10.0271 11.7864 9.09799 12.8009C8.29027 13.7055 7.67314 14.8183 7.49091 16.3175C7.29037 17.9658 7.66518 19.4457 8.27435 20.579C9.3773 22.6312 11.6015 24.3188 14.3613 24.6745C15.9763 24.883 17.4696 24.6241 18.7205 24.1574C19.3054 23.9395 19.8478 23.5875 20.3678 23.2679C20.9018 22.9393 21.4131 22.5481 21.8141 22.1506C22.6429 21.3308 23.4375 20.3184 23.9234 19.1511C24.4215 17.9551 24.8723 16.5826 24.8075 14.9519C24.2381 14.8327 23.6321 14.9105 23.0194 14.9105C21.2213 14.9101 19.2923 14.9052 17.4748 14.8486C17.3725 14.579 17.3952 14.2681 17.3343 14.0009Z" fill="#2D1C04"/>
</svg>
