<svg width="204" height="133" viewBox="0 0 204 133" fill="none" xmlns="http://www.w3.org/2000/svg">
<path d="M24.9452 82.317C17.4089 79.8049 11.3798 75.2831 6.85802 68.7516C2.33623 62.7226 0.0753479 55.9399 0.0753479 48.4036C-0.427078 40.8673 1.5826 33.331 6.10439 25.7947C10.1237 18.7608 16.6552 12.7317 25.6988 7.70751C40.269 0.171204 53.0807 -1.83847 64.134 1.67847C75.1872 5.69783 82.9748 11.7269 87.4966 19.7656C90.0087 23.785 92.0183 29.3116 93.5256 36.3455C94.5304 43.3794 95.0329 50.6645 95.0329 58.2008C94.5304 66.2395 93.5256 74.027 92.0183 81.5634C90.5111 89.0997 88.2502 95.3799 85.2357 100.404C82.7235 103.921 79.709 107.689 76.1921 111.709C73.1776 115.226 69.6606 118.742 65.6412 122.259C61.1194 125.776 56.0952 129.042 50.5686 132.057L24.1915 130.549C27.7085 126.53 30.9742 122.762 33.9888 119.245C36.5009 116.23 38.7617 113.467 40.7714 110.955C42.7811 108.443 44.7908 106.182 46.8005 104.172C50.3174 100.655 53.0807 97.1384 55.0904 93.6215C57.1001 90.6069 58.8586 87.3412 60.3658 83.8243C61.3707 80.3073 61.3707 76.7904 60.3658 73.2734C53.8344 80.3073 46.298 83.8243 37.7569 83.8243C33.7375 83.8243 29.467 83.3218 24.9452 82.317ZM128.946 78.5488C121.912 74.5295 116.888 69.0028 113.874 61.9689C110.357 55.4375 109.101 48.4036 110.105 40.8673C111.11 33.331 114.376 26.2971 119.903 19.7656C124.927 13.2341 132.463 8.20995 142.512 4.693C158.087 -0.331207 170.898 -0.0800018 180.947 5.44662C190.995 11.4757 197.778 18.7608 201.295 27.3019C202.802 31.8237 203.556 37.6015 203.556 44.6354C203.556 51.6693 202.802 58.9544 201.295 66.4907C199.788 74.027 197.778 81.3121 195.266 88.346C192.754 95.3799 189.488 101.158 185.469 105.68C182.454 109.196 178.937 112.462 174.918 115.477C171.401 117.989 167.381 120.752 162.86 123.767C157.835 126.781 152.309 129.545 146.28 132.057L119.903 125.274C123.922 121.757 127.69 118.742 131.207 116.23C134.222 113.718 136.985 111.457 139.497 109.448C142.009 107.438 144.521 105.428 147.033 103.419C150.55 100.404 153.565 97.3896 156.077 94.3751C158.589 91.863 160.85 88.8485 162.86 85.3315C164.869 82.317 165.623 79.0513 165.121 75.5343C161.101 78.5488 157.082 80.3073 153.062 80.8097C148.541 81.8146 144.521 82.0658 141.004 81.5634C136.985 81.0609 132.966 80.0561 128.946 78.5488Z" fill="#616161" fill-opacity="0.1"/>
</svg>
